<svg xmlns="http://www.w3.org/2000/svg" width="139" height="52" viewBox="0 0 139 52"><title> تخفیفان | سایت تخفیف و خرید گروهی در تور، کالا و خدمات</title>
<g fill="none" fill-rule="evenodd">
<g fill="#FF5B5E" stroke="#FF5B5E" stroke-linecap="round" stroke-linejoin="round" stroke-width=".4">
<path d="M115.788 26.933c-.041-.199.021-.315.21-.408.764-.378 1.53-.751 2.292-1.132 4.972-2.488 10.064-4.7 15.217-6.771.998-.401 2.02-.741 3.026-1.12a.846.846 0 0 0 .33-.248c.1-.12.182-.267.239-.416.062-.16.15-.214.327-.152v.485c.164-.037.307-.053.438-.102.131-.05.23-.01.315.076.03.03.047.114.027.146-.17.267-.367.5-.71.527-.122.01-.167.099-.21.203a41.2 41.2 0 0 1-2.937 5.975c-1.464 2.437-3.176 4.671-5.26 6.597-2.59 2.393-5.545 4.115-8.958 4.983-.977.25-1.965.436-2.97.514-.573.044-1.147.11-1.719.1-.682-.01-1.363-.087-2.045-.142-.043-.003-.081-.065-.122-.1.046-.036.089-.101.137-.105.365-.033.73-.055 1.096-.077.854-.053 1.708-.096 2.56-.156 1.801-.129 3.487-.674 5.125-1.426 2.824-1.298 5.174-3.233 7.283-5.501 1.52-1.635 2.757-3.483 3.937-5.375.735-1.18 1.47-2.363 2.07-3.623.14-.294.243-.608.36-.914.02-.055.022-.118.043-.235-6.735 2.806-13.557 5.25-20.1 8.397z"></path>
<path d="M118.826 50.535c-.183-.076-.357-.144-.527-.22-1.583-.716-3-1.694-4.318-2.827a23.961 23.961 0 0 1-5.073-6.04c-1.056-1.794-1.736-3.726-2.11-5.777-.204-1.123-.358-2.252-.4-3.393-.034-.925-.081-1.85-.062-2.774.04-1.87.234-3.723.633-5.552.145-.665.255-1.337.38-2.006.02-.11-.007-.176-.138-.18-1.319-.047-2.637-.148-3.955-.138-2.3.018-4.555.38-6.741 1.13-.12.042-.247.072-.373.085-.053.005-.149-.04-.16-.08-.017-.058.006-.164.049-.195a1.42 1.42 0 0 1 .414-.226c1.203-.344 2.402-.703 3.616-1.004.869-.215 1.754-.363 2.638-.513.504-.086 1.017-.118 1.527-.167.528-.05 1.057-.112 1.587-.132.756-.028 1.514-.022 2.272-.03.194-.002.387 0 .618 0-.029.12-.044.189-.062.257-.304 1.142-.646 2.276-.899 3.43-.203.928-.314 1.878-.436 2.823-.163 1.267-.172 2.544-.097 3.814.067 1.105.19 2.212.37 3.303.416 2.506 1.234 4.88 2.366 7.148.63 1.26 1.483 2.348 2.417 3.38 1.4 1.549 2.872 3.022 4.489 4.34.595.485 1.198.965 1.921 1.251.133.052.095.163.054.293m7.68-45.299c-.091.148-.157.307-.266.423-.27.287-.539.58-.844.825-.436.349-.903.659-1.36.978-.116.08-.245.143-.375.196-.617.254-.598.181-.98-.183a4.94 4.94 0 0 1-.36-.371c-.564-.665-1.849-.855-2.631-.342-.688.45-1.269 1.014-1.8 1.633-1.529 1.778-2.77 3.756-3.867 5.829-.357.677-.656 1.385-.976 2.082-.048.105-.087.146-.203.093-.505-.235-.492-.074-.324-.687.23-.836.633-1.6 1.055-2.348 1.422-2.518 3.043-4.895 4.965-7.049a10.82 10.82 0 0 1 2.756-2.232c.644-.364 1.327-.433 2.04-.332.964.137 1.833.543 2.685.994.118.062.227.149.325.24.062.06.097.15.16.25"></path>
<path d="M126.355 6.99c.24.07.461.101.653.197.81.402 1.509.962 2.126 1.628.033.036.061.078.09.118.152.215.145.261-.06.426-.632.51-1.269 1.013-1.993 1.387-.566.293-1.16.485-1.8.518-.18.01-.295-.059-.366-.238a3.772 3.772 0 0 0-.318-.668c-.39-.6-.97-.761-1.635-.657-.86.134-1.597.564-2.31 1.038-1.296.86-2.457 1.89-3.551 2.995-.997 1.008-1.954 2.056-2.931 3.084-.05.054-.144.134-.182.118a1.694 1.694 0 0 1-.367-.238c-.012-.01.03-.113.064-.158.42-.55.816-1.12 1.27-1.639 2-2.288 4.246-4.292 6.766-5.972.982-.656 2.005-1.242 3.132-1.605.461-.148.945-.226 1.412-.334m-14.279 9.178c-.143-.056-.26-.091-.368-.147-.044-.023-.094-.089-.094-.135.002-.65-.008-1.303.027-1.952.03-.555.095-1.111.182-1.661.183-1.159.508-2.283.853-3.4.505-1.636 1.076-3.246 1.845-4.775.191-.38.415-.745.639-1.108.419-.681 1.017-1.085 1.807-1.2.888-.13 1.774-.178 2.66-.002.177.035.352.101.517.178.162.076.232.213.163.4-.045.122-.07.252-.126.368-.325.674-.65 1.349-.99 2.015-.097.19-.236.364-.38.522-.204.225-.422.255-.698.126a2.505 2.505 0 0 1-.32-.18c-.64-.422-1.294-.385-1.948-.05-.637.328-1.084.861-1.463 1.457-.61.958-.995 2.015-1.313 3.1a24.669 24.669 0 0 0-.798 3.983c-.087.719-.114 1.445-.168 2.169l-.027.292m-1.559-.323c-.305.06-.355.043-.405-.228-.18-.993-.377-1.983-.516-2.981-.15-1.08-.134-2.169-.041-3.253.097-1.136.19-2.274.342-3.402a48.52 48.52 0 0 1 .544-3.088c.137-.68.558-1.139 1.219-1.34.612-.187 1.23-.36 1.847-.529a.999.999 0 0 1 .346-.017c.42.037.681.313.637.729a23.507 23.507 0 0 1-.26 1.78c-.042.227-.15.447-.261.652-.274.504-.738.552-1.24.504a4.361 4.361 0 0 0-.75-.021c-.35.028-.605.248-.821.512-.398.485-.592 1.067-.73 1.67-.277 1.198-.333 2.42-.295 3.644a87.13 87.13 0 0 0 .18 3.27c.049.697.134 1.392.204 2.098"></path>
<path d="M114.83 17.176c.073-.08.135-.156.203-.226 2.594-2.682 5.712-4.381 9.333-5.134.49-.102.983-.2 1.48-.24.254-.02.54.045.776.153.754.346 1.337.905 1.792 1.605.027.041.05.085.072.13.125.264.103.334-.153.464-.618.313-1.234.634-1.92.764-.224.042-.463.05-.688.02-.33-.04-.446-.165-.447-.5 0-.414-.221-.652-.54-.838-.623-.364-1.294-.426-1.987-.316-1.351.213-2.528.855-3.672 1.57-1.227.768-2.35 1.678-3.472 2.593-.355.29-.386.287-.776-.045m-5.423-1.336c-.345.14-.347.142-.52-.16-.513-.891-.832-1.862-1.12-2.844a28.349 28.349 0 0 1-.924-4.468c-.129-1.036-.162-2.077-.155-3.12.004-.576.225-1 .7-1.303.477-.305.972-.548 1.55-.556.227-.003.337.075.388.288.183.765.273 1.537.141 2.321a1.4 1.4 0 0 1-.11.333.414.414 0 0 1-.41.257c-.183-.002-.365.02-.548.027-.204.007-.34.119-.447.282-.247.375-.327.8-.352 1.236-.076 1.322.173 2.605.487 3.877a22.188 22.188 0 0 0 1.085 3.333c.07.164.153.322.235.496m11.532 34.809c.255.014.51.037.764.039.714.005 1.429.016 2.143-.002a10.18 10.18 0 0 0 2.418-.373c1.37-.371 2.592-1 3.523-2.119.237-.285.436-.604.652-.907l-.04-.03c-.36.086-.716.183-1.078.255a9.113 9.113 0 0 1-2.533.148c-1.022-.081-2-.313-2.918-.78-.091-.047-.136-.016-.2.05-.215.22-.424.45-.66.644-.45.37-.995.517-1.557.599a9.354 9.354 0 0 1-.709.074c-.055.003-.113-.04-.17-.062.052-.05.097-.128.158-.143.366-.096.738-.165 1.102-.267.662-.185 1.185-.592 1.573-1.204-.453-.365-.964-.67-1.268-1.219.07.033.144.06.211.1.5.285.983.607 1.501.854a8.15 8.15 0 0 0 2.846.79c1.578.13 3.108-.062 4.554-.758.11-.053.222-.108.338-.141.063-.019.165-.02.2.019.035.04.028.14.012.206a1.103 1.103 0 0 1-.108.256c-1.25 2.338-3.088 3.912-5.678 4.499a7.416 7.416 0 0 1-2.55.13c-.67-.084-1.335-.215-2-.34-.198-.037-.399-.102-.526-.318"></path>
<path d="M116.181 18.01c.094-.075.185-.153.281-.225 1.485-1.125 3.156-1.848 4.929-2.348a16.11 16.11 0 0 1 2.815-.548c.49-.048.985-.044 1.478-.046a.58.58 0 0 1 .341.11c.327.258.64.534.953.81.057.051.096.128.133.2.07.14.043.25-.11.315-.534.227-1.066.471-1.647.544-.226.028-.462 0-.69-.031-.172-.024-.278-.141-.282-.335a.522.522 0 0 0-.233-.422 1.447 1.447 0 0 0-.786-.274c-.9-.058-1.753.181-2.604.429a13.695 13.695 0 0 0-4.037 1.944c-.271.19-.298.182-.54-.122m5.892 32.495c-.092-.08-.18-.163-.275-.24-1.966-1.61-3.15-3.729-3.872-6.147a15.924 15.924 0 0 1-.627-3.258 37.023 37.023 0 0 1-.134-2.414c-.007-.385.083-.774.154-1.156.047-.253.2-.32.557-.28v.212c-.001.751-.013 1.503-.002 2.254.03 1.968.407 3.868 1.16 5.682.333.805.715 1.59 1.092 2.376.389.81.986 1.478 1.496 2.206l.504.72-.053.045M108.449 16.16c-.112.073-.203.147-.306.196-.039.018-.122-.004-.155-.038-.17-.177-.353-.348-.493-.549-1.353-1.942-2.516-3.99-3.274-6.254a2.56 2.56 0 0 1-.05-.16c-.07-.267-.17-.53-.046-.813.177-.403.384-.784.758-1.028.268-.176.431-.15.577.145.232.473.45.95.545 1.474.04.222.021.42-.191.554-.073.045-.128.118-.2.164-.359.229-.399.561-.31.943.158.69.474 1.314.813 1.925a23.534 23.534 0 0 0 2.248 3.329l.084.111"></path>
<path d="M116.901 18.635c.16-.097.306-.198.462-.278a14.028 14.028 0 0 1 3.65-1.24c.856-.17 1.719-.296 2.595-.301.853-.005 1.285.459 1.507 1.202.104.35.04.462-.296.565-.367.114-.735.23-1.13.164-.26-.045-.44-.164-.529-.44-.171-.526-.455-.718-1.001-.76-1.025-.077-1.997.18-2.965.465a9.696 9.696 0 0 0-1.901.774c-.227.123-.228.12-.392-.15m-9.199-1.845c-.132.295-.139.305-.373.128-1.124-.846-2.163-1.782-3.014-2.92a1.099 1.099 0 0 1-.208-.822c.025-.227.042-.457.095-.678.063-.263.175-.294.37-.118.325.291.575.64.748 1.046a.43.43 0 0 1-.03.423c-.242.393-.236.501.05.876.411.54.926.971 1.454 1.386.294.23.598.448.908.68m2.668 4.789c-.265.016-.5-.06-.711-.21-.464-.332-.472-.904-.02-1.253.416-.323 1.097-.314 1.505.019.422.343.414.892-.021 1.219a1.094 1.094 0 0 1-.754.225"></path>
<path d="M117.408 19.267c.296-.1.594-.225.904-.302a7.504 7.504 0 0 1 3.317-.1c.181.036.323.113.4.284.106.236.219.47.298.714.061.19-.038.318-.231.295-.374-.045-.744-.12-1.115-.19-.033-.006-.08-.065-.079-.1.002-.208.003-.414-.175-.562-.215-.18-.478-.214-.74-.222-.652-.02-1.283.129-1.914.271-.148.034-.298.063-.445.102-.129.034-.2-.007-.22-.19m-12.459-3.795c.316.01.75.44.734.754-.008.182.057.303.206.378.464.234.93.467 1.4.688.1.049.17.076.127.21-.05.153-.148.08-.22.046-.604-.284-1.21-.561-1.804-.866-.348-.179-.578-.475-.625-.886-.022-.199.054-.327.182-.324"></path>
</g>
<path fill="#4A4A4A" d="M0 28.918h2.433v4.769c0 1.927.495 3.278 1.487 4.053.99.775 2.457 1.163 4.4 1.163 1 0 1.862-.075 2.583-.225.72-.148 1.316-.407 1.787-.774.47-.368.816-.875 1.036-1.52.22-.645.33-1.465.33-2.458v-5.051h2.433v5.08c0 1.31-.185 2.434-.555 3.367-.37.934-.906 1.7-1.607 2.295-.701.597-1.562 1.034-2.583 1.311-1.021.279-2.183.418-3.484.418-2.744 0-4.807-.616-6.188-1.848C.69 38.268 0 36.498 0 34.193v-5.275zm89.201 6.162c-.27.333-.6.58-.991.744l-.004.001-.008.003a2.71 2.71 0 0 1-.236.085c-.763.236-1.698.354-2.808.354H80.59v-.017H49.8c-.781 0-1.412-.184-1.893-.552-.48-.367-.8-.829-.96-1.385-.361.814-.926 1.34-1.698 1.58-.77.238-1.717.357-2.838.357H22.888a7.441 7.441 0 0 1-1.758-.194 3.215 3.215 0 0 1-1.352-.67c-.37-.318-.66-.741-.87-1.267-.21-.526-.316-1.187-.316-1.982V18.815h2.463v12.666c0 .834.13 1.426.391 1.774.26.347.84.521 1.741.521h3.905a8.352 8.352 0 0 1-.57-1.385c-.16-.507-.24-1.088-.24-1.744 0-.774.13-1.54.39-2.295a6.163 6.163 0 0 1 1.141-2.012 5.858 5.858 0 0 1 1.847-1.43c.731-.368 1.577-.551 2.538-.551 1.101 0 2.003.199 2.704.596.7.398 1.256.904 1.667 1.52.41.616.696 1.296.856 2.04.16.746.24 1.476.24 2.192v3.069h4.295c.48 0 .891-.02 1.232-.06.34-.039.626-.133.856-.283a1.3 1.3 0 0 0 .51-.655c.11-.288.165-.68.165-1.177v-5.16h2.463v4.057c0 .496.036.95.106 1.356.07.407.205.75.405 1.028.2.278.47.497.812.656.34.159.77.238 1.291.238h3.424a8.47 8.47 0 0 1-.571-1.385c-.16-.507-.24-1.088-.24-1.744 0-.774.13-1.54.39-2.295a6.165 6.165 0 0 1 1.142-2.012 5.858 5.858 0 0 1 1.847-1.43c.73-.368 1.577-.551 2.538-.551 1.101 0 2.002.199 2.704.596.7.398 1.255.904 1.667 1.52.41.616.695 1.296.856 2.04.16.746.24 1.476.24 2.192v3.069h14.327c0-1.27-.17-2.344-.51-3.218-.34-.874-.802-1.584-1.382-2.13a5.285 5.285 0 0 0-2.028-1.193 8.04 8.04 0 0 0-2.478-.373c-.58 0-1.197.056-1.847.164-.65.11-1.186.224-1.607.342v-2.383c.4-.12.931-.254 1.592-.403a9.833 9.833 0 0 1 2.163-.223c1.502 0 2.793.248 3.874.745 1.082.497 1.978 1.177 2.689 2.041a8.511 8.511 0 0 1 1.577 3.01c.34 1.143.52 2.35.54 3.621h5.064l.156-.016c.337-.04.62-.132.847-.28.228-.148.396-.364.505-.649.11-.285.164-.673.164-1.165v-5.311h2.437v4.243c0 1.456.248 3.297-.679 4.482zm-5.42-14.761c0-.438.155-.81.466-1.118a1.54 1.54 0 0 1 1.126-.462c.441 0 .816.154 1.126.462.31.308.466.68.466 1.118 0 .437-.155.81-.466 1.118-.31.308-.685.461-1.126.461-.44 0-.816-.153-1.126-.461a1.517 1.517 0 0 1-.466-1.118zm3.214 0c0-.438.154-.81.465-1.118a1.54 1.54 0 0 1 1.126-.462c.44 0 .816.154 1.127.462.31.308.466.68.466 1.118 0 .437-.156.81-.466 1.118a1.54 1.54 0 0 1-1.127.461 1.54 1.54 0 0 1-1.126-.461 1.517 1.517 0 0 1-.465-1.118zm-17.012.03c0-.438.156-.81.466-1.119.31-.307.686-.461 1.126-.461.44 0 .816.154 1.127.461.31.308.465.681.465 1.118 0 .438-.156.81-.465 1.118-.31.308-.687.462-1.127.462a1.54 1.54 0 0 1-1.126-.462 1.516 1.516 0 0 1-.466-1.118zm-15.227 9.91c0 1.213.36 2.102 1.08 2.668.722.566 1.603.849 2.645.849h2.883v-2.98a7.87 7.87 0 0 0-.136-1.445 3.765 3.765 0 0 0-.495-1.312 2.84 2.84 0 0 0-.991-.953c-.42-.249-.951-.372-1.592-.372-1.061 0-1.892.346-2.493 1.043-.601.695-.9 1.53-.9 2.503zm1.26-9.94c0-.438.156-.81.466-1.118a1.54 1.54 0 0 1 1.126-.462c.441 0 .816.154 1.127.462.31.308.465.68.465 1.118 0 .437-.155.81-.465 1.118a1.54 1.54 0 0 1-1.127.461 1.54 1.54 0 0 1-1.126-.461 1.518 1.518 0 0 1-.466-1.118zm-17.678 19.53c0-.436.157-.81.466-1.117a1.546 1.546 0 0 1 1.126-.462c.44 0 .818.156 1.127.462.309.306.465.68.465 1.117 0 .437-.156.812-.465 1.118a1.58 1.58 0 0 1-2.253 0 1.523 1.523 0 0 1-.466-1.118zm3.213 0c0-.436.157-.81.466-1.117a1.546 1.546 0 0 1 1.127-.462c.44 0 .817.156 1.126.462.308.306.465.68.465 1.117 0 .437-.157.812-.465 1.118a1.58 1.58 0 0 1-2.253 0 1.522 1.522 0 0 1-.466-1.118zm-12.927-9.59c0 1.213.36 2.102 1.082 2.668.72.566 1.602.849 2.643.849h2.883v-2.98a7.93 7.93 0 0 0-.135-1.445 3.752 3.752 0 0 0-.496-1.312 2.835 2.835 0 0 0-.991-.953c-.42-.249-.951-.372-1.591-.372-1.062 0-1.893.346-2.494 1.043-.6.695-.9 1.53-.9 2.503zm1.26-9.94c0-.438.156-.81.466-1.118.31-.308.687-.462 1.127-.462.44 0 .815.154 1.126.462.31.308.465.68.465 1.118 0 .437-.155.81-.465 1.118a1.54 1.54 0 0 1-1.126.461c-.44 0-.816-.153-1.127-.461a1.518 1.518 0 0 1-.466-1.118zM6.758 29.694c0-.437.155-.81.466-1.118a1.54 1.54 0 0 1 1.126-.461c.44 0 .816.153 1.126.461.31.308.466.681.466 1.118 0 .438-.155.81-.466 1.117a1.54 1.54 0 0 1-1.126.463 1.54 1.54 0 0 1-1.126-.463 1.515 1.515 0 0 1-.466-1.117z"></path>
</g>
</svg>
